HIERARCHY
ROOT root     
{
	OFFSET 0.0000 0.0000 0.0000
	CHANNELS 6 Xposition Yposition Zposition Zrotation Yrotation Xrotation
	JOINT pelvis   
	{
		OFFSET 0.0000 0.0000 0.0000
		CHANNELS 3 Zrotation Yrotation Xrotation
		JOINT thorax   
		{
			OFFSET 0.0000 23.0750 -5.0000
			CHANNELS 3 Zrotation Yrotation Xrotation
			JOINT rclavicle
			{
				OFFSET 0.0000 28.0009 0.0000
				CHANNELS 3 Zrotation Yrotation Xrotation
				JOINT rhumerus 
				{
					OFFSET -18.5725 5.5939 0.0000
					CHANNELS 3 Zrotation Yrotation Xrotation
					JOINT rradius  
					{
						OFFSET -24.8459 0.0000 0.0000
						CHANNELS 3 Zrotation Yrotation Xrotation
						JOINT rhand    
						{
							OFFSET -24.5477 0.0000 0.0000
							CHANNELS 3 Zrotation Yrotation Xrotation
							End Site
							{
								OFFSET -8.1826 0.0000 0.0000
							}
						}
					}
				}
			}
			JOINT lclavicle
			{
				OFFSET 0.0000 28.0009 0.0000
				CHANNELS 3 Zrotation Yrotation Xrotation
				JOINT lhumerus 
				{
					OFFSET 18.5725 5.5939 0.0000
					CHANNELS 3 Zrotation Yrotation Xrotation
					JOINT lradius  
					{
						OFFSET 24.8459 0.0000 0.0000
						CHANNELS 3 Zrotation Yrotation Xrotation
						JOINT lhand    
						{
							OFFSET 24.5477 0.0000 0.0000
							CHANNELS 3 Zrotation Yrotation Xrotation
							End Site
							{
								OFFSET 8.1826 0.0000 0.0000
							}
						}
					}
				}
			}
			JOINT head     
			{
				OFFSET 0.0000 35.2030 0.0000
				CHANNELS 3 Zrotation Yrotation Xrotation
				End Site
				{
					OFFSET 0.0000 11.7343 0.0000
				}
			}
		}
		JOINT rfemur   
		{
			OFFSET -8.2817 0.0000 0.0000
			CHANNELS 3 Zrotation Yrotation Xrotation
			JOINT rtibia   
			{
				OFFSET 0.0000 -43.3627 0.0000
				CHANNELS 3 Zrotation Yrotation Xrotation
				JOINT rfoot    
				{
					OFFSET 0.0000 -38.2947 0.0000
					CHANNELS 3 Zrotation Yrotation Xrotation
					JOINT rtoes    
					{
						OFFSET 0.0000 0.0000 16.6054
						CHANNELS 3 Zrotation Yrotation Xrotation
						End Site
						{
							OFFSET 0.0000 0.0000 5.5351
						}
					}
				}
			}
		}
		JOINT lfemur   
		{
			OFFSET 8.2817 0.0000 0.0000
			CHANNELS 3 Zrotation Yrotation Xrotation
			JOINT ltibia   
			{
				OFFSET 0.0000 -43.3627 0.0000
				CHANNELS 3 Zrotation Yrotation Xrotation
				JOINT lfoot    
				{
					OFFSET 0.0000 -38.2947 0.0000
					CHANNELS 3 Zrotation Yrotation Xrotation
					JOINT ltoes    
					{
						OFFSET 0.0000 0.0000 16.6054
						CHANNELS 3 Zrotation Yrotation Xrotation
						End Site
						{
							OFFSET 0.0000 0.0000 5.5351
						}
					}
				}
			}
		}
	}
}
MOTION
Frames: 16
Frame Time: .0333333
28.458 86.397 3.8091 -173.727 -75.5603 -175.517 0 -0 0 2.77478 1.25789 -18.4387 14.0155 -0.877297 -3.9195e-06 58.0089 45.9479 -5.77397 -180 50.9744 -180 -16.85 24.8799 -3.74266 -9.60193 10.7967 -8.31499e-06 -12.8935 -50.3224 -53.1634 -180 -48.1406 180 26.5108 -16.1101 -3.81883 3.66765 7.13872 15.184 -2.40937 5.78895 -10.0732 -0 -0 5.89678 3.28391e-07 0.5601 6.90821 0.0674008 -4.6845e-08 -31.3834 1.28352 26.1832 -5.54722 -0 -0 3.88237 -2.69555e-05 12.2579 5.13804 1.11471 -7.33638e-06 -28.0179 
28.501 86.409 3.8762 -173.979 -74.7402 -174.947 0 -0 0 3.05032 1.33469 -18.6835 13.9923 -0.822205 -4.45954e-06 58.3243 46.1948 -5.33427 -180 51.1955 -180 -16.9349 24.8796 -3.76173 -9.13936 10.8282 -5.74557e-06 -11.6917 -50.2336 -54.8076 -180 -48.5503 180 26.7376 -16.1648 -3.86586 3.79801 7.54933 15.0815 -2.56153 6.10324 -10.6026 -0 -0 5.97296 -2.13173e-08 1.0117 7.06771 0.1245 5.52423e-07 -31.6443 1.01052 26.6655 -5.84326 -0 -0 3.91311 3.13464e-05 12.5497 5.1047 1.13458 6.62614e-06 -27.8921 
28.556 86.42 3.9499 -174.198 -73.9264 -174.398 0 -0 0 3.33369 1.31429 -18.9086 13.9772 -0.760402 8.77442e-07 58.6773 46.4673 -4.86072 -180 51.4372 -180 -17.0314 24.8707 -3.78213 -8.653 10.8185 -2.28243e-06 -10.4104 -50.1096 -56.4815 -180 -49.0801 180 26.9571 -16.2205 -3.91247 3.96561 7.99485 14.928 -2.71759 6.40728 -11.1432 -0 -0 6.02954 1.17198e-07 1.45918 7.24102 0.184005 9.50056e-07 -31.903 0.719378 27.1671 -6.16173 -0 -0 3.92934 -2.39847e-05 12.8058 5.08394 1.15401 -9.74911e-06 -27.7783 
28.622 86.432 4.0295 -174.392 -73.1327 -173.869 0 -0 0 3.62063 1.19137 -19.1049 13.9736 -0.6921 4.15826e-06 59.064 46.7605 -4.36455 -180 51.6931 -180 -17.1343 24.8512 -3.80223 -8.13948 10.7582 5.20399e-06 -9.06632 -49.9423 -58.1676 -180 -49.7452 180 27.1634 -16.2925 -3.96129 4.17334 8.46896 14.7161 -2.87671 6.7006 -11.6897 -0 -0 6.07098 2.0251e-06 1.89678 7.42419 0.2452 1.35871e-07 -32.154 0.41304 27.6828 -6.49614 -0 -0 3.92934 -1.62746e-05 13.0251 5.07647 1.1727 -6.76778e-07 -27.6779 
28.701 86.445 4.1149 -174.565 -72.3554 -173.353 0 -0 0 3.90419 0.963585 -19.2769 13.9852 -0.615597 -2.46842e-07 59.4727 47.0712 -3.86078 -180 51.9615 -180 -17.2338 24.8224 -3.82005 -7.56617 10.6255 5.4485e-06 -7.75215 -49.7067 -59.8114 -180 -50.552 180 27.3588 -16.411 -4.02017 4.42582 8.96306 14.4461 -3.04067 6.99094 -12.245 -0 -0 6.10036 -4.87385e-06 2.31016 7.61693 0.306399 2.11206e-06 -32.4019 0.0898897 28.1995 -6.85082 -0 -0 3.91083 2.47838e-05 13.2145 5.08308 1.19178 1.05653e-06 -27.5896 
28.788 86.457 4.2041 -174.716 -71.6097 -172.872 0 -0 0 4.18459 0.627695 -19.3976 14.0119 -0.534897 4.8727e-07 59.902 47.4022 -3.35173 -180 52.2409 -180 -17.3268 24.7847 -3.83496 -6.96712 10.4431 1.00302e-06 -6.42298 -49.4513 -61.4331 -180 -51.5571 180 27.5443 -16.5782 -4.09026 4.72163 9.47192 14.1084 -3.20263 7.26839 -12.7872 -0 -0 6.11754 -4.90314e-06 2.70369 7.81722 0.367993 -2.67308e-07 -32.6383 -0.237394 28.7285 -7.20163 -0 -0 3.87437 -1.18735e-05 13.3567 5.1048 1.21034 7.50918e-06 -27.5128 
28.885 86.47 4.2964 -174.847 -70.8976 -172.423 0 -0 0 4.45658 0.183808 -19.4707 14.0578 -0.449001 1.34982e-06 60.341 47.7484 -2.8525 -180 52.5297 -180 -17.4059 24.7415 -3.84578 -6.30628 10.1963 4.32997e-06 -5.19304 -49.1664 -62.9726 -180 -52.7683 180 27.7398 -16.8225 -4.182 5.06362 9.98711 13.7087 -3.36212 7.53895 -13.3128 -0 -0 6.1225 -3.25059e-06 3.06449 8.02629 0.428301 3.62465e-06 -32.8718 -0.567568 29.2565 -7.5495 -0 -0 3.81884 9.17172e-07 13.462 5.14194 1.22904 1.33121e-06 -27.4501 
28.991 86.484 4.3904 -174.956 -70.2287 -172.018 0 -0 0 4.71901 -0.367804 -19.4865 14.1259 -0.359603 7.9283e-07 60.7828 48.1077 -2.37017 -180 52.8245 -180 -17.4635 24.6955 -3.85132 -5.57672 9.88963 2.50273e-06 -4.12035 -48.8702 -64.4089 -180 -54.2231 180 27.968 -17.15 -4.30109 5.45151 10.5022 13.2555 -3.51453 7.79877 -13.8103 -0 -0 6.11174 -1.69408e-06 3.38881 8.24506 0.486502 -7.32217e-06 -33.1086 -0.891646 29.7792 -7.88333 -0 -0 3.7449 -1.86949e-05 13.5258 5.1949 1.24778 -3.53607e-06 -27.4027 
29.103 86.499 4.4843 -175.042 -69.6099 -171.668 0 -0 0 4.97145 -1.02574 -19.4359 14.2205 -0.273006 -6.87789e-07 61.2267 48.4828 -1.90042 -180 53.128 -180 -17.5019 24.6491 -3.85241 -4.79946 9.54656 -2.4481e-06 -3.20477 -48.619 -65.7462 -180 -55.9725 180 28.2497 -17.5667 -4.45327 5.88222 11.0136 12.7602 -3.6537 8.04042 -14.2605 -0 -0 6.0822 1.62024e-06 3.67783 8.47531 0.542794 -1.50161e-06 -33.3498 -1.19976 30.3002 -8.18896 -0 -0 3.65427 -1.88508e-05 13.5446 5.26448 1.26635 3.64057e-06 -27.3702 
29.219 86.516 4.5768 -175.104 -69.052 -171.38 0 -0 0 5.21305 -1.78732 -19.3181 14.3444 -0.193997 5.07411e-07 61.6647 48.873 -1.44718 -180 53.442 -180 -17.5235 24.6053 -3.85018 -3.97675 9.17734 1.75419e-06 -2.47616 -48.4455 -66.9792 -180 -58.059 180 28.6134 -18.0734 -4.64511 6.35236 11.5161 12.2407 -3.77552 8.25856 -14.6543 -0 -0 6.02908 6.4812e-06 3.92852 8.71862 0.596404 5.3292e-06 -33.6017 -1.48526 30.8105 -8.46011 -0 -0 3.54844 -8.93874e-06 13.5198 5.35084 1.28448 -1.33501e-05 -27.3539 
29.339 86.534 4.6671 -175.139 -68.5582 -171.16 0 -0 0 5.44605 -2.6495 -19.1402 14.4944 -0.119996 -1.13446e-08 62.1025 49.2654 -1.0083 -180 53.7684 -180 -17.5201 24.5717 -3.84405 -3.07558 8.76306 7.71678e-06 -2.05842 -48.3256 -68.0574 -180 -60.481 180 29.0979 -18.6172 -4.87177 6.85546 12.0093 11.7255 -3.87564 8.44937 -14.9829 -0 -0 5.94615 -2.86909e-06 4.13565 8.97733 0.646403 -3.45963e-06 -33.8736 -1.74132 31.3033 -8.69329 -0 -0 3.42934 1.76623e-05 13.4521 5.45305 1.30204 -1.49315e-05 -27.3558 
29.46 86.555 4.7541 -175.15 -68.1381 -171.01 0 -0 0 5.67046 -3.60794 -18.9022 14.6746 -0.0625 -2.27981e-08 62.5388 49.6662 -0.569997 -180 54.1107 -180 -17.5081 24.5456 -3.83713 -2.14787 8.33595 8.73131e-06 -1.86209 -48.3248 -69.0344 -180 -63.3072 180 29.7028 -19.19 -5.1333 7.38402 12.4935 11.2363 -3.95011 8.60258 -15.2366 -0 -0 5.83023 -7.3754e-06 4.30315 9.25116 0.693096 -8.07298e-07 -34.1643 -1.96217 31.7735 -8.88209 -0 -0 3.29904 2.82095e-05 13.3408 5.57141 1.31883 8.62783e-06 -27.3747 
29.581 86.578 4.8375 -175.136 -67.8026 -170.932 0 -0 0 5.88856 -4.6571 -18.6167 14.8825 -0.0231003 -6.58713e-08 62.9799 50.0626 -0.125598 -180 54.4709 -180 -17.4913 24.5274 -3.83048 -1.19264 7.88609 3.76194e-06 -1.91381 -48.4237 -69.9074 -180 -66.5477 180 30.43 -19.732 -5.41623 7.92766 12.968 10.8005 -3.99638 8.71184 -15.4102 -0 -0 5.6782 1.36716e-06 4.42993 9.5404 0.735598 4.31552e-07 -34.4739 -2.14414 32.2144 -9.02502 -0 -0 3.15969 -3.41046e-05 13.1867 5.70534 1.33441 -1.62124e-06 -27.4095 
29.701 86.604 4.9171 -175.097 -67.5544 -170.922 0 -0 0 6.10172 -5.79105 -18.2946 15.115 -0.00540003 -3.58763e-08 63.4315 50.4472 0.336422 -180 54.8519 -180 -17.4786 24.5151 -3.82563 -0.232693 7.41218 3.72482e-07 -2.17392 -48.6148 -70.7052 -180 -70.2231 180 31.2532 -20.1896 -5.70162 8.47586 13.4364 10.4422 -4.01408 8.77123 -15.5022 -0 -0 5.48925 1.28236e-06 4.51645 9.84263 0.773601 -4.05379e-06 -34.8032 -2.28625 32.6184 -9.12326 -0 -0 3.01346 -1.19354e-05 12.9959 5.85324 1.34835 1.2331e-05 -27.4568 
29.818 86.632 4.9933 -175.04 -67.3994 -170.974 0 -0 0 6.31134 -7.00217 -17.9495 15.367 -0.0120995 -1.58894e-08 63.8968 50.8116 0.824661 -180 55.2538 -180 -17.4763 24.5047 -3.82347 0.707904 6.90981 -1.65552e-07 -2.58843 -48.8675 -71.4516 -180 -74.357 180 32.1283 -20.5198 -5.96741 9.01793 13.9004 10.1799 -4.00476 8.77667 -15.5146 -0 -0 5.26523 -1.44843e-08 4.56394 10.1542 0.806297 4.28618e-06 -35.1466 -2.38915 32.9779 -9.17861 -0 -0 2.86175 -5.55175e-07 12.7705 6.01345 1.36019 -4.38175e-06 -27.5146 
29.931 86.662 5.0665 -174.965 -67.3383 -171.08 0 -0 0 6.51777 -8.28241 -17.5939 15.6339 -0.0476998 -1.26962e-07 64.3818 51.1493 1.35125 -180 55.6771 -180 -17.4961 24.4877 -3.82515 1.58951 6.38517 -7.06663e-07 -3.05047 -49.1615 -72.1922 -180 -78.9627 180 32.9939 -20.6966 -6.19091 9.5436 14.3625 10.0247 -3.97153 8.72615 -15.455 -0 -0 5.01171 -4.08253e-06 4.57406 10.4701 0.832896 6.09558e-06 -35.4931 -2.45644 33.2866 -9.19592 -0 -0 2.70668 3.01163e-05 12.5175 6.18441 1.37016 2.22187e-05 -27.5771 
